<!--?xml version="1.0" encoding="utf-8"?-->
<!-- Generator: Adobe Illustrator 18.1.1, SVG Export Plug-In . SVG Version: 6.00 Build 0)  -->

<svg version="1.1" id="_x31_0" xmlns="http://www.w3.org/2000/svg" xmlns:xlink="http://www.w3.org/1999/xlink" x="0px" y="0px" viewBox="0 0 512 512" style="width: 256px; height: 256px; opacity: 1;" xml:space="preserve">
<style type="text/css">
	.st0{fill:#374149;}
</style>
<g>
	<path class="st0" d="M510.293,370.908c0-0.019-0.004-0.039-0.008-0.062c-0.61-4.142-1.359-8.251-2.286-12.346
		c-0.133-0.594-0.285-1.188-0.426-1.786c-0.836-3.517-1.734-7.013-2.794-10.478c-0.531-1.79-1.156-3.567-1.75-5.349
		c-0.758-2.238-1.485-4.478-2.332-6.685c-1.903-5.071-3.974-10.123-6.353-15.116c-0.782-1.414-1.841-3.321-3.2-5.759
		c-0.012-0.019-0.019-0.039-0.031-0.058c4.399,7.888,11.408,20.109-1.958-3.841c-0.523-0.863-0.726-1.164-0.707-1.086
		c-24.75-40.367-58.491-72.717-100.878-94.432c-44.754-22.926-94.662-33.678-144.812-33.416c0-21.817,0-43.629,0-65.446
		l0.094-38.472l-0.094,0.07c0-0.066,0-0.133,0-0.199c-18.945,14.01-122.913,90.911-188.613,139.506L0.098,255.871l0.039,0.028
		C0.106,255.922,0.027,255.976,0,256c27.396,20.261,232.691,172.106,242.759,179.552c0-33.401,0-66.798,0-100.194
		c0-2.199-0.695-5.942,0-8.064c1.153-3.524-0.16-2.278,5.942-2.918c19.824-2.078,39.918-2.902,59.812-1.461
		c39.484,2.867,79.96,11.494,115.259,30.002c18.293,9.591,35.366,20.722,51.045,34.202c2.93,2.52,5.755,5.122,8.529,7.771
		c0.222,0.21,0.45,0.414,0.672,0.629c7.747,7.442,15.034,15.292,22.477,23.098l2.524,2.778c0.008-0.035,0.012-0.074,0.019-0.11
		c0.043,0.046,0.09,0.098,0.137,0.145C512.703,404.703,512.75,387.649,510.293,370.908z" style="fill: rgb(75, 75, 75);"></path>
</g>
</svg>
